REM DIRINDEX 1\2,1\3,1\4,1\5
REM DIRNAME cjc004,folder01,folder02,folder03,folder04
TITLE ""
FILE "1Q_t_2061-2070.mp3" MP3
  TRACK 01 AUDIO
    TITLE "3:cjc004_7091"
    INDEX 01 00:00:00
  TRACK 02 AUDIO
    TITLE "0:"
    INDEX 01 00:00:62
  TRACK 03 AUDIO
    TITLE "4:cjc004_7092"
    INDEX 01 00:01:17
  TRACK 04 AUDIO
    TITLE "0:"
    INDEX 01 00:02:28
  TRACK 05 AUDIO
    TITLE "5:cjc004_7093"
    INDEX 01 00:02:53
  TRACK 06 AUDIO
    TITLE "0:"
    INDEX 01 00:06:73
  TRACK 07 AUDIO
    TITLE "3:cjc004_7094"
    INDEX 01 00:07:52
  TRACK 08 AUDIO
    TITLE "0:"
    INDEX 01 00:08:64
  TRACK 09 AUDIO
    TITLE "4:cjc004_7095"
    INDEX 01 00:09:16
  TRACK 10 AUDIO
    TITLE "0:"
    INDEX 01 00:10:29
  TRACK 11 AUDIO
    TITLE "5:cjc004_7096"
    INDEX 01 00:10:53
  TRACK 12 AUDIO
    TITLE "0:"
    INDEX 01 00:15:46
  TRACK 13 AUDIO
    TITLE "3:cjc004_7097"
    INDEX 01 00:16:22
  TRACK 14 AUDIO
    TITLE "0:"
    INDEX 01 00:17:31
  TRACK 15 AUDIO
    TITLE "4:cjc004_7098"
    INDEX 01 00:17:67
  TRACK 16 AUDIO
    TITLE "0:"
    INDEX 01 00:19:20
  TRACK 17 AUDIO
    TITLE "5:cjc004_7099"
    INDEX 01 00:19:48
  TRACK 18 AUDIO
    TITLE "0:"
    INDEX 01 00:23:26
  TRACK 19 AUDIO
    TITLE "3:cjc004_7100"
    INDEX 01 00:24:06
  TRACK 20 AUDIO
    TITLE "0:"
    INDEX 01 00:25:23
  TRACK 21 AUDIO
    TITLE "4:cjc004_7101"
    INDEX 01 00:25:46
  TRACK 22 AUDIO
    TITLE "0:"
    INDEX 01 00:26:66
  TRACK 23 AUDIO
    TITLE "5:cjc004_7102"
    INDEX 01 00:27:14
  TRACK 24 AUDIO
    TITLE "0:"
    INDEX 01 00:31:49
  TRACK 25 AUDIO
    TITLE "3:cjc004_7103"
    INDEX 01 00:32:29
  TRACK 26 AUDIO
    TITLE "0:"
    INDEX 01 00:33:32
  TRACK 27 AUDIO
    TITLE "4:cjc004_7104"
    INDEX 01 00:33:54
  TRACK 28 AUDIO
    TITLE "0:"
    INDEX 01 00:34:67
  TRACK 29 AUDIO
    TITLE "5:cjc004_7105"
    INDEX 01 00:35:19
  TRACK 30 AUDIO
    TITLE "0:"
    INDEX 01 00:39:70
  TRACK 31 AUDIO
    TITLE "3:cjc004_7106"
    INDEX 01 00:40:44
  TRACK 32 AUDIO
    TITLE "0:"
    INDEX 01 00:41:53
  TRACK 33 AUDIO
    TITLE "4:cjc004_7107"
    INDEX 01 00:42:06
  TRACK 34 AUDIO
    TITLE "0:"
    INDEX 01 00:43:19
  TRACK 35 AUDIO
    TITLE "5:cjc004_7108"
    INDEX 01 00:43:42
  TRACK 36 AUDIO
    TITLE "0:"
    INDEX 01 00:48:61
  TRACK 37 AUDIO
    TITLE "3:cjc004_7109"
    INDEX 01 00:49:43
  TRACK 38 AUDIO
    TITLE "0:"
    INDEX 01 00:50:50
  TRACK 39 AUDIO
    TITLE "4:cjc004_7110"
    INDEX 01 00:51:05
  TRACK 40 AUDIO
    TITLE "0:"
    INDEX 01 00:52:22
  TRACK 41 AUDIO
    TITLE "5:cjc004_7111"
    INDEX 01 00:52:51
  TRACK 42 AUDIO
    TITLE "0:"
    INDEX 01 00:56:25
  TRACK 43 AUDIO
    TITLE "3:cjc004_7112"
    INDEX 01 00:56:72
  TRACK 44 AUDIO
    TITLE "0:"
    INDEX 01 00:58:01
  TRACK 45 AUDIO
    TITLE "4:cjc004_7113"
    INDEX 01 00:58:30
  TRACK 46 AUDIO
    TITLE "0:"
    INDEX 01 00:59:49
  TRACK 47 AUDIO
    TITLE "5:cjc004_7114"
    INDEX 01 00:59:71
  TRACK 48 AUDIO
    TITLE "0:"
    INDEX 01 01:04:17
  TRACK 49 AUDIO
    TITLE "3:cjc004_7115"
    INDEX 01 01:04:72
  TRACK 50 AUDIO
    TITLE "0:"
    INDEX 01 01:06:02
  TRACK 51 AUDIO
    TITLE "4:cjc004_7116"
    INDEX 01 01:06:30
  TRACK 52 AUDIO
    TITLE "0:"
    INDEX 01 01:07:64
  TRACK 53 AUDIO
    TITLE "5:cjc004_7117"
    INDEX 01 01:08:15
  TRACK 54 AUDIO
    TITLE "0:"
    INDEX 01 01:12:70
  TRACK 55 AUDIO
    TITLE "3:cjc004_7118"
    INDEX 01 01:13:51
  TRACK 56 AUDIO
    TITLE "0:"
    INDEX 01 01:14:65
  TRACK 57 AUDIO
    TITLE "4:cjc004_7119"
    INDEX 01 01:15:21
  TRACK 58 AUDIO
    TITLE "0:"
    INDEX 01 01:16:50
  TRACK 59 AUDIO
    TITLE "5:cjc004_7120"
    INDEX 01 01:16:69
  TRACK 60 AUDIO
    TITLE "0:"
    INDEX 01 01:21:43
